<?xml version="1.0" encoding="utf-8"?>
<!-- Generator: Adobe Illustrator 27.6.1, SVG Export Plug-In . SVG Version: 6.00 Build 0)  -->
<svg version="1.1" id="Layer_1" xmlns="http://www.w3.org/2000/svg" xmlns:xlink="http://www.w3.org/1999/xlink" x="0px" y="0px"
	 viewBox="0 0 80 80" style="enable-background:new 0 0 80 80;" xml:space="preserve">
<style type="text/css">
	.st0{fill:#FFFFFF;}
</style>
<g>
	<path class="st0" d="M39.7,5.3c19.3,0,35,15.7,35,35s-15.7,35-35,35s-35-15.7-35-35S20.4,5.3,39.7,5.3 M39.7,3.3
		c-20.4,0-37,16.6-37,37s16.6,37,37,37s37-16.6,37-37S60.2,3.3,39.7,3.3L39.7,3.3z"/>
</g>
<g>
	<path class="st0" d="M14.2,41.1v-1.7c0-0.3,0.1-0.4,0.4-0.5l14.8-6.1c0.2-0.1,0.4,0,0.4,0.2v2.3c0,0.3-0.1,0.4-0.4,0.5l-11.1,4.4
		v0.1l11.1,4.4c0.3,0.1,0.4,0.2,0.4,0.5v2.3c0,0.2-0.1,0.3-0.4,0.2l-14.8-6.1C14.4,41.6,14.2,41.4,14.2,41.1z"/>
	<path class="st0" d="M42.5,27.6c0.1-0.2,0.2-0.4,0.5-0.4h2c0.2,0,0.3,0.1,0.3,0.4L37,52.9c-0.1,0.2-0.2,0.4-0.5,0.4h-2
		c-0.2,0-0.3-0.1-0.3-0.4L42.5,27.6z"/>
	<path class="st0" d="M49.7,45.2c0-0.3,0.1-0.4,0.4-0.5l11.1-4.4v-0.1l-11.1-4.4c-0.3-0.1-0.4-0.2-0.4-0.5V33c0-0.2,0.1-0.3,0.4-0.2
		l14.8,6.1c0.3,0.1,0.4,0.3,0.4,0.5v1.7c0,0.3-0.1,0.4-0.4,0.5l-14.8,6.1c-0.2,0.1-0.4,0-0.4-0.2V45.2z"/>
</g>
</svg>
