<?xml version="1.0" encoding="UTF-8" standalone="no"?>
<svg
   width="207.17999"
   height="49.033001"
   viewBox="0 0 207.17999 49.033002"
   version="1.1"
   id="svg71"
   sodipodi:docname="bittrex-logo-global_light.svg"
   inkscape:version="1.2.2 (732a01da63, 2022-12-09)"
   xmlns:inkscape="http://www.inkscape.org/namespaces/inkscape"
   xmlns:sodipodi="http://sodipodi.sourceforge.net/DTD/sodipodi-0.dtd"
   xmlns="http://www.w3.org/2000/svg"
   xmlns:svg="http://www.w3.org/2000/svg">
  <sodipodi:namedview
     id="namedview73"
     pagecolor="#ffffff"
     bordercolor="#000000"
     borderopacity="0.25"
     inkscape:showpageshadow="2"
     inkscape:pageopacity="0.0"
     inkscape:pagecheckerboard="0"
     inkscape:deskcolor="#d1d1d1"
     showgrid="false"
     inkscape:zoom="8.611651"
     inkscape:cx="72.285791"
     inkscape:cy="28.333707"
     inkscape:window-width="3840"
     inkscape:window-height="2054"
     inkscape:window-x="-11"
     inkscape:window-y="-11"
     inkscape:window-maximized="1"
     inkscape:current-layer="svg71" />
  <defs
     id="defs49">
    <clipPath
       id="clip-path">
      <rect
         id="Rechteck_392"
         data-name="Rechteck 392"
         width="207.17999"
         height="49.033001"
         fill="none"
         x="0"
         y="0" />
    </clipPath>
  </defs>
  <g
     id="Gruppe_833"
     data-name="Gruppe 833"
     transform="translate(-1342.41,-1515.311)">
    <g
       id="Gruppe_655"
       data-name="Gruppe 655"
       clip-path="url(#clip-path)"
       transform="translate(1342.41,1515.311)">
      <path
         id="Pfad_7947"
         data-name="Pfad 7947"
         d="M 370.563,105.558 H 226.771 v 19.68 H 370.892 V 105.56 h -0.329"
         transform="translate(-163.712,-76.205)"
         fill="#0053a0" />
      <path
         id="Pfad_7948"
         data-name="Pfad 7948"
         d="M 49.064,0 H 14.213 v 10.274 h 6.405 V 6.387 H 42.7 V 28.418 H 34.831 V 14.243 H 0 V 49.011 H 34.821 V 38.76 h -6.366 v 3.881 H 6.376 V 20.619 h 7.857 v 14.173 h 34.851 v -0.41 q 0,-16.995 0,-33.99 c 0,-0.131 -0.013,-0.262 -0.019,-0.393 M 28.439,28.425 h -7.81 V 20.61 h 7.811 z"
         fill="#0053a0" />
      <path
         id="Pfad_7949"
         data-name="Pfad 7949"
         d="m 226.5,22.437 c 4.424,0 8.849,0.013 13.273,-0.012 a 10.087,10.087 0 0 0 2.28,-0.264 5.514,5.514 0 0 0 4.22,-3.58 7.63,7.63 0 0 0 0.366,-3.078 5,5 0 0 0 -3.342,-4.647 c -0.107,-0.044 -0.212,-0.091 -0.365,-0.157 a 4.459,4.459 0 0 0 2.481,-3.231 7.325,7.325 0 0 0 0.154,-2.613 4.783,4.783 0 0 0 -2.711,-4 A 7.424,7.424 0 0 0 241.5,0.339 C 240.936,0.188 240.349,0.11 239.769,0 H 226.2 c 0.005,0.131 0.014,0.263 0.014,0.394 q 0,10.808 0,21.616 v 0.415 c 0.133,0.006 0.209,0.013 0.285,0.013 M 231.51,4.429 h 0.35 q 2.75,0 5.5,0 a 7.064,7.064 0 0 1 0.854,0.053 1.925,1.925 0 0 1 1.808,1.988 3.977,3.977 0 0 1 -0.078,1.044 1.87,1.87 0 0 1 -1.827,1.595 c -0.207,0.019 -0.417,0.016 -0.625,0.016 h -5.98 z m -0.01,9.011 c 0.111,-0.007 0.216,-0.018 0.321,-0.018 2.173,0 4.345,0 6.518,0 a 4.892,4.892 0 0 1 0.948,0.085 2.083,2.083 0 0 1 1.77,2.415 1.827,1.827 0 0 1 -1.787,1.978 6.367,6.367 0 0 1 -0.884,0.068 q -3.309,0.009 -6.617,0 c -0.076,0 -0.153,-0.006 -0.269,-0.011 z"
         transform="translate(-163.299)"
         fill="#001d29" />
      <path
         id="Pfad_7950"
         data-name="Pfad 7950"
         d="m 507.2,22.012 v 0.4 h 5.323 v -8.464 c 1.623,0 3.2,0.016 4.783,-0.011 a 0.667,0.667 0 0 1 0.709,0.449 c 1.285,2.591 2.592,5.171 3.883,7.759 a 0.449,0.449 0 0 0 0.469,0.3 c 1.8,-0.012 3.6,-0.006 5.4,-0.006 h 0.336 l -5.155,-9.521 a 0.545,0.545 0 0 1 0.1,-0.071 A 4.492,4.492 0 0 0 526,9.681 10.234,10.234 0 0 0 526.2,4.763 5.278,5.278 0 0 0 522.173,0.3 C 521.646,0.159 521.1,0.1 520.56,0 h -13.374 c 0.005,0.131 0.014,0.263 0.014,0.394 q 0,10.809 0,21.618 m 5.348,-17.373 c 0.114,-0.005 0.23,-0.016 0.346,-0.016 1.887,0 3.775,-0.013 5.661,0.008 a 5.317,5.317 0 0 1 1.359,0.192 1.323,1.323 0 0 1 1.052,1.21 10.973,10.973 0 0 1 0.02,2.025 c -0.109,0.954 -0.566,1.32 -1.553,1.416 -0.229,0.023 -0.46,0.034 -0.69,0.034 q -2.929,0 -5.859,0 c -0.107,0 -0.214,-0.01 -0.337,-0.017 z"
         transform="translate(-366.151)"
         fill="#001d29" />
      <path
         id="Pfad_7951"
         data-name="Pfad 7951"
         d="m 594.616,22.416 h 17.374 v -4.671 h -12.1 v -4.17 h 11.537 V 8.84 H 599.888 V 4.7 h 11.971 V 0 H 594.6 c 0,0.033 0,0.066 0,0.1 q 0,11.021 0,22.043 c 0,0.093 0.014,0.187 0.021,0.275"
         transform="translate(-429.254)"
         fill="#001d29" />
      <path
         id="Pfad_7952"
         data-name="Pfad 7952"
         d="M 671.806,0.393 C 671.723,0.267 671.657,0.131 671.583,0 h -6.325 c 0.058,0.1 0.109,0.211 0.177,0.308 q 3.249,4.652 6.5,9.3 l 1.042,1.49 -8.25,11.337 c 2.055,0 4.02,0 5.985,-0.01 a 0.531,0.531 0 0 0 0.346,-0.228 c 1.035,-1.471 2.059,-2.949 3.086,-4.425 l 1.768,-2.542 c 0.087,0.126 0.155,0.221 0.221,0.318 1.465,2.173 2.934,4.343 4.389,6.523 a 0.709,0.709 0 0 0 0.68,0.373 c 1.954,-0.018 3.908,-0.006 5.863,-0.005 v -0.066 c -0.214,-0.289 -0.435,-0.572 -0.64,-0.866 -4.9,-7.019 -9.9,-13.971 -14.619,-21.117"
         transform="translate(-479.886)"
         fill="#001d29" />
      <path
         id="Pfad_7953"
         data-name="Pfad 7953"
         d="M 431.574,4.626 V 22.41 h 5.489 V 4.607 h 7.116 V 0 h -19.7 q 0,2.269 -0.008,4.537 c 0,0.018 0.02,0.036 0.051,0.089 z"
         transform="translate(-306.439)"
         fill="#001d29" />
      <path
         id="Pfad_7954"
         data-name="Pfad 7954"
         d="m 346.487,4.625 h 7.089 v 17.8 h 5.467 V 4.616 h 7.143 V 0 h -19.7 a 1.5,1.5 0 0 0 -0.024,0.194 q 0,2.106 0,4.211 c 0,0.062 0.013,0.125 0.023,0.22"
         transform="translate(-250.121)"
         fill="#001d29" />
      <path
         id="Pfad_7955"
         data-name="Pfad 7955"
         d="m 314.825,21.971 v 0.445 h 5.464 V 22 q 0,-10.822 0,-21.644 c 0,-0.12 -0.009,-0.241 -0.014,-0.361 h -5.468 c 0.006,0.142 0.019,0.284 0.019,0.426 q 0,10.772 0,21.545"
         transform="translate(-227.267)"
         fill="#001d29" />
      <path
         id="Pfad_7956"
         data-name="Pfad 7956"
         d="m 720.178,0 v 3.889 h 3.045 V 6.91 H 727.1 V 0 Z"
         transform="translate(-519.916)"
         fill="#0053a0" />
      <path
         id="Pfad_7957"
         data-name="Pfad 7957"
         d="m 378.462,127.49 h 3.116 a 1.937,1.937 0 0 1 -1.621,2.473 4.377,4.377 0 0 1 -1.527,0.079 2.174,2.174 0 0 1 -2.174,-2 8.459,8.459 0 0 1 0.046,-3.4 2.077,2.077 0 0 1 1.677,-1.736 5.054,5.054 0 0 1 1.5,-0.079 2.013,2.013 0 0 1 1.851,1.4 c 0.048,0.144 0.075,0.3 0.113,0.448 h 2.279 c 0,-0.093 0.013,-0.169 0.01,-0.243 a 3.585,3.585 0 0 0 -2.389,-3.279 7.56,7.56 0 0 0 -3.441,-0.328 4.373,4.373 0 0 0 -4.027,3.453 9.69,9.69 0 0 0 0.125,4.622 3.858,3.858 0 0 0 2.858,2.851 5.937,5.937 0 0 0 1.259,0.225 4.3,4.3 0 0 0 3.6,-1.055 c 0.009,-0.009 0.038,0 0.077,0.006 q 0.056,0.442 0.114,0.9 h 1.885 v -6.266 h -5.33 z"
         transform="translate(-269.751,-87.185)"
         fill="#ffffff" />
      <path
         id="Pfad_7958"
         data-name="Pfad 7958"
         d="m 418.349,121.5 h -2.395 v 10.862 h 7.846 v -2.005 h -5.449 z"
         transform="translate(-300.289,-87.715)"
         fill="#ffffff" />
      <path
         id="Pfad_7959"
         data-name="Pfad 7959"
         d="m 451.809,120.936 a 7.938,7.938 0 0 0 -3.782,-0.011 4.115,4.115 0 0 0 -3.275,3.3 c -0.148,0.68 -0.189,1.384 -0.269,2.011 0.073,0.7 0.107,1.323 0.21,1.937 a 4.056,4.056 0 0 0 3.495,3.636 9.534,9.534 0 0 0 2.786,0.087 4.094,4.094 0 0 0 4,-3.533 10.166,10.166 0 0 0 0.033,-4.082 3.969,3.969 0 0 0 -3.2,-3.349 m 0.746,7.249 a 2.3,2.3 0 0 1 -2.24,1.793 4.787,4.787 0 0 1 -1.018,-0.015 2.4,2.4 0 0 1 -2.225,-2.3 c -0.075,-0.441 -0.094,-0.892 -0.152,-1.467 0.082,-0.508 0.142,-1.143 0.292,-1.756 a 2.143,2.143 0 0 1 1.8,-1.661 4.074,4.074 0 0 1 1.924,0.053 2.13,2.13 0 0 1 1.595,1.549 7.346,7.346 0 0 1 0.026,3.8"
         transform="translate(-320.884,-87.138)"
         fill="#ffffff" />
      <path
         id="Pfad_7960"
         data-name="Pfad 7960"
         d="m 496.417,126.686 c -0.066,-0.023 -0.135,-0.037 -0.154,-0.042 a 5.785,5.785 0 0 0 0.992,-0.8 2.845,2.845 0 0 0 0.5,-2.216 2.174,2.174 0 0 0 -1.561,-1.962 5.793,5.793 0 0 0 -1.641,-0.272 c -1.932,-0.032 -3.864,-0.013 -5.8,-0.013 H 488.4 V 132.3 h 0.4 c 1.263,0 2.525,0 3.788,0 1,-0.005 2,0.017 3,-0.044 a 2.7,2.7 0 0 0 2.712,-2.656 2.468,2.468 0 0 0 -1.878,-2.919 m -5.67,-3.388 h 0.47 c 0.944,0 1.888,-0.01 2.832,0.007 a 1.162,1.162 0 0 1 1.251,1.322 1.185,1.185 0 0 1 -1.3,1.308 c -1.073,0 -2.147,0 -3.25,0 z m 5.027,6.187 a 0.968,0.968 0 0 1 -1,0.835 c -1.333,0.043 -2.668,0.014 -4.022,0.014 v -2.55 h 1.657 c 0.68,0 1.36,-0.013 2.04,0.005 a 1.286,1.286 0 0 1 1.328,1.7"
         transform="translate(-352.589,-87.625)"
         fill="#ffffff" />
      <path
         id="Pfad_7961"
         data-name="Pfad 7961"
         d="m 533.1,121.595 a 0.3,0.3 0 0 0 -0.339,-0.22 c -0.8,0.006 -1.6,0.015 -2.4,0 a 0.439,0.439 0 0 0 -0.5,0.334 q -1.51,3.939 -3.043,7.869 l -1.054,2.717 c 0.8,0 1.533,0.008 2.267,-0.01 a 0.387,0.387 0 0 0 0.256,-0.223 q 0.407,-1.021 0.778,-2.057 a 0.358,0.358 0 0 1 0.4,-0.29 c 1.294,0.013 2.589,0.011 3.884,0 a 0.311,0.311 0 0 1 0.349,0.253 c 0.239,0.693 0.505,1.376 0.74,2.071 a 0.326,0.326 0 0 0 0.379,0.26 c 0.449,-0.014 0.9,0 1.349,0 h 0.821 a 1.406,1.406 0 0 0 -0.033,-0.186 q -1.926,-5.255 -3.849,-10.511 m -3.131,6.138 1.5,-4.124 1.4,4.124 z"
         transform="translate(-379.564,-87.621)"
         fill="#ffffff" />
      <path
         id="Pfad_7962"
         data-name="Pfad 7962"
         d="m 572.387,130.343 v -8.856 H 570 v 10.864 h 7.835 v -2.008 z"
         transform="translate(-411.498,-87.705)"
         fill="#ffffff" />
    </g>
  </g>
</svg>
