<svg xmlns="http://www.w3.org/2000/svg" width="165" height="36" viewBox="0 0 165 36" fill="none"><path d="M30.438 9.37847L15.5361 17.9991L0 9.37847L15.5361 0.757812L30.438 9.37847Z" fill="#154CCE"></path><path d="M30.437 9.37842V26.6197L15.5352 35.242V17.9991L30.437 9.37842Z" fill="#092056"></path><path d="M0 9.37842V26.6197L15.5361 35.242V17.9991L0 9.37842Z" fill="#0B2C89"></path><path d="M24.2639 12.8768L15.4075 17.9991L6.17578 12.8768L15.4075 7.75293L24.2639 12.8768Z" fill="#FF7466"></path><path d="M24.2637 12.8765V23.1226L15.4072 28.2449V17.9987L24.2637 12.8765Z" fill="#ED2E21"></path><path d="M6.17578 12.8765V23.1226L15.4075 28.2449V17.9987L6.17578 12.8765Z" fill="#FF5038"></path><path d="M56.1621 8.50433C56.2011 8.46778 56.2455 8.44076 56.294 8.42328C56.3432 8.4058 56.3949 8.39706 56.4465 8.40024H59.0835C59.1351 8.39627 59.1884 8.40342 59.2376 8.4209C59.2869 8.43838 59.3313 8.46698 59.3687 8.50513C59.406 8.54247 59.4346 8.58776 59.4521 8.63703C59.4711 8.68629 59.4767 8.73874 59.4719 8.79039V26.9183C59.4759 26.9708 59.4703 27.024 59.4521 27.0733C59.4346 27.1225 59.406 27.1678 59.3687 27.2052C59.3313 27.2425 59.2869 27.2703 59.2376 27.2894C59.1892 27.3069 59.1351 27.314 59.0835 27.3101H56.4465C56.3949 27.314 56.3416 27.3085 56.2924 27.291C56.2432 27.2735 56.1979 27.2449 56.1613 27.2068C56.124 27.1694 56.0954 27.1241 56.0779 27.0749C56.0605 27.0256 56.0533 26.9723 56.0581 26.9199V8.78959C56.0549 8.73715 56.0636 8.6855 56.0811 8.63782C56.0986 8.58856 56.1272 8.54406 56.1613 8.50592V8.50433H56.1621Z" fill="#092056"></path><path d="M64.5063 26.754C63.5047 26.1816 62.6745 25.3515 62.1051 24.3526C61.5262 23.3282 61.2217 22.1723 61.2217 20.9982C61.2217 19.824 61.5262 18.6681 62.1051 17.643C62.6824 16.6448 63.515 15.8163 64.5182 15.2392C65.5213 14.6636 66.6585 14.3591 67.8179 14.3591C68.9772 14.3591 70.1144 14.662 71.1176 15.2392C72.1207 15.8163 72.9534 16.6448 73.5307 17.643C74.1095 18.6673 74.4125 19.8232 74.4125 20.9982C74.4125 22.1731 74.108 23.3282 73.5307 24.3526C72.6528 25.8573 71.2087 26.9554 69.5181 27.4057C67.8266 27.856 66.0241 27.6205 64.5055 26.7524H64.5103L64.5071 26.754H64.5063ZM70.1556 23.49C70.7948 22.828 71.1152 21.9963 71.1152 20.9997C71.1152 20.0032 70.7964 19.1731 70.1556 18.5095C69.8511 18.1964 69.4887 17.9482 69.0859 17.7777C68.683 17.6073 68.2516 17.5193 67.8147 17.5177C67.3778 17.5177 66.9448 17.6025 66.5419 17.7706C66.1391 17.9395 65.7743 18.186 65.4698 18.496C64.8378 19.1493 64.5214 19.9834 64.5214 20.9997C64.5214 22.0161 64.8378 22.8478 65.4698 23.5035C65.7743 23.815 66.1399 24.0616 66.5419 24.2289C66.9448 24.3978 67.3778 24.4826 67.8147 24.481C68.2516 24.481 68.6838 24.3914 69.0859 24.221C69.4887 24.0505 69.8511 23.8008 70.1556 23.4892V23.49Z" fill="#092056"></path><path d="M83.9061 24.1853C84.3587 23.9632 84.7773 23.6817 85.1545 23.347C85.191 23.3065 85.2355 23.2748 85.2848 23.2534C85.334 23.232 85.3872 23.2185 85.4412 23.2185C85.496 23.2153 85.5492 23.2272 85.6001 23.2486C85.6509 23.2716 85.6938 23.3049 85.7271 23.347L87.3139 24.8436C87.3528 24.8801 87.3862 24.9245 87.4076 24.9721C87.429 25.0213 87.4425 25.0729 87.4441 25.1284C87.4457 25.176 87.437 25.2236 87.4195 25.268C87.4005 25.3124 87.375 25.3528 87.3401 25.3862C86.7341 26.0905 85.9797 26.6536 85.1299 27.0359C84.2571 27.4333 83.3073 27.6363 82.3471 27.6292C81.1947 27.6379 80.063 27.3373 79.0703 26.7615C78.076 26.1841 77.258 25.3528 76.7013 24.3519C76.139 23.3208 75.8428 22.1675 75.8428 20.9953C75.8428 19.823 76.1374 18.6697 76.7013 17.6386C77.5018 16.2268 78.809 15.1672 80.3624 14.6706C81.9151 14.1725 83.5987 14.2749 85.0799 14.9554C85.9193 15.344 86.6642 15.9056 87.2639 16.6052C87.2972 16.6385 87.325 16.6789 87.3433 16.7233C87.3607 16.7677 87.3695 16.8161 87.3695 16.8629C87.3679 16.9161 87.3568 16.97 87.3337 17.0192C87.3107 17.0684 87.2805 17.1112 87.24 17.1477L85.6533 18.6705C85.6215 18.7078 85.581 18.7387 85.5365 18.7617C85.492 18.7832 85.4428 18.7966 85.3936 18.8006C85.334 18.7958 85.2752 18.78 85.2212 18.7546C85.168 18.7284 85.1204 18.6911 85.0807 18.6451C84.7066 18.3128 84.2912 18.0312 83.8449 17.8068C83.4026 17.6021 82.9173 17.499 82.4281 17.5093C81.4743 17.5093 80.6904 17.8401 80.0749 18.5024C79.461 19.1647 79.1529 19.9951 79.1513 20.9937C79.1513 21.9923 79.4595 22.8227 80.0749 23.485C80.6904 24.1473 81.4759 24.478 82.4281 24.478C82.9372 24.4907 83.4431 24.39 83.9084 24.1837H83.9053L83.9061 24.1853Z" fill="#092056"></path><path d="M101.907 27.0757C101.907 27.2322 101.804 27.3085 101.595 27.3085H98.7303C98.6374 27.314 98.5468 27.2958 98.4641 27.2544C98.3815 27.2139 98.3124 27.1519 98.2615 27.0764L94.4882 22.1036L92.7155 23.9663V26.9183C92.7195 26.9708 92.714 27.024 92.6965 27.0733C92.6774 27.1225 92.6504 27.167 92.6107 27.2052C92.5733 27.2425 92.528 27.2703 92.4788 27.2894C92.4295 27.3069 92.3715 27.3113 92.3238 27.3101H89.6668C89.63 27.3101 89.5612 27.3085 89.5103 27.2894C89.461 27.2719 89.4165 27.2433 89.3784 27.2052C89.3403 27.167 89.3133 27.1225 89.2942 27.0733C89.2767 27.024 89.2696 26.9708 89.2735 26.9183V8.78881C89.2696 8.73637 89.2767 8.68472 89.2942 8.63545C89.3133 8.58618 89.3403 8.54168 89.3784 8.50513C89.4158 8.46778 89.461 8.43997 89.5103 8.4209C89.5596 8.40342 89.6128 8.39627 89.6652 8.40024H92.3222C92.3747 8.39627 92.4279 8.40342 92.4772 8.4209C92.5264 8.43838 92.5709 8.46699 92.6091 8.50513C92.6464 8.54248 92.6758 8.58777 92.6941 8.63545C92.7116 8.68472 92.7187 8.73716 92.7147 8.78881V19.8509L97.4026 14.8248C97.4606 14.7581 97.5313 14.7048 97.6124 14.6683C97.6934 14.6317 97.78 14.615 97.8698 14.6174H100.864C100.951 14.6135 101.038 14.6365 101.112 14.6826C101.14 14.7001 101.165 14.7263 101.181 14.7549C101.197 14.7835 101.204 14.8169 101.204 14.8503C101.192 14.9416 101.146 15.0259 101.073 15.0831L96.5707 19.8747L101.831 26.8436C101.882 26.9104 101.909 26.993 101.907 27.0764V27.0749V27.0757Z" fill="#092056"></path><path d="M110.708 14.7634C110.743 14.8022 110.769 14.8474 110.786 14.8958C110.802 14.9449 110.809 14.9965 110.805 15.0488V17.0617C110.809 17.1133 110.803 17.1672 110.786 17.2163C110.768 17.2655 110.74 17.3099 110.703 17.3479C110.665 17.3852 110.62 17.4129 110.57 17.432C110.521 17.4494 110.467 17.4565 110.415 17.451H108.593V26.9211C108.597 26.9726 108.591 27.0265 108.572 27.0757C108.555 27.1248 108.526 27.1692 108.488 27.2073C108.451 27.2445 108.405 27.2723 108.356 27.2905C108.307 27.3079 108.263 27.3111 108.201 27.3111L105.522 27.3111C105.482 27.3111 105.441 27.3095 105.39 27.2921C105.34 27.2747 105.295 27.2461 105.258 27.2081C105.221 27.1708 105.192 27.1256 105.174 27.0764C105.157 27.0273 105.15 26.9742 105.155 26.9219V17.4494H103.333C103.281 17.4542 103.227 17.4478 103.177 17.4304C103.127 17.4129 103.081 17.3844 103.045 17.3463C103.007 17.3091 102.978 17.2639 102.96 17.2147C102.943 17.1656 102.936 17.1125 102.941 17.0601V15.0504C102.937 14.998 102.943 14.9449 102.96 14.8958C102.979 14.8466 103.006 14.8022 103.045 14.7642C103.083 14.7269 103.128 14.6992 103.177 14.6801C103.228 14.6627 103.28 14.6556 103.334 14.6603H105.156V11.1759C105.151 11.1236 105.158 11.0705 105.175 11.0213C105.194 10.9722 105.221 10.9278 105.26 10.8897C105.297 10.8525 105.343 10.8247 105.392 10.8057C105.443 10.7882 105.494 10.7811 105.548 10.7859H108.202C108.253 10.7819 108.306 10.789 108.357 10.8057C108.406 10.8231 108.451 10.8517 108.489 10.8897C108.526 10.927 108.555 10.9722 108.574 11.0197C108.591 11.0689 108.598 11.1204 108.594 11.1728V14.6571H110.416C110.469 14.6532 110.523 14.6603 110.573 14.6785C110.624 14.696 110.67 14.7229 110.709 14.761L110.704 14.7626L110.708 14.7634Z" fill="#092056"></path><path d="M121.376 15.2613C121.367 15.332 121.35 15.4019 121.324 15.4678L120.54 17.38C120.454 17.6388 120.263 17.7254 119.966 17.6388C119.622 17.5277 119.26 17.4665 118.898 17.4578C118.098 17.4578 117.455 17.7167 116.97 18.2352C116.485 18.7537 116.242 19.4089 116.24 20.199V26.9193C116.244 26.9709 116.237 27.0249 116.22 27.0742C116.202 27.1234 116.173 27.1679 116.135 27.206C116.098 27.2433 116.053 27.2711 116.003 27.2902C115.952 27.3076 115.893 27.3131 115.847 27.3115H114.502H113.19C113.152 27.3131 113.083 27.3084 113.032 27.2902C112.981 27.2727 112.937 27.2441 112.9 27.206C112.864 27.1687 112.833 27.1234 112.816 27.0742C112.797 27.0249 112.791 26.9717 112.795 26.9193V15.0311C112.791 14.9786 112.798 14.927 112.816 14.8778C112.833 14.8286 112.862 14.7841 112.9 14.746C112.938 14.7087 112.983 14.6809 113.032 14.6618C113.083 14.6443 113.135 14.6372 113.189 14.642H115.718C115.943 14.642 116.075 14.7722 116.111 15.0311L116.213 16.4271C116.978 15.0485 118.064 14.3593 119.471 14.3593C119.799 14.3561 120.126 14.4125 120.434 14.5268C120.707 14.6269 120.964 14.7714 121.19 14.9532C121.242 14.9882 121.284 15.0342 121.316 15.0874C121.348 15.1406 121.368 15.2002 121.374 15.2605H121.375L121.376 15.2613Z" fill="#092056"></path><path d="M135.254 14.7443C135.29 14.7815 135.316 14.8268 135.335 14.876C135.352 14.9251 135.361 14.9767 135.358 15.0275V26.9039C135.362 26.9555 135.355 27.0094 135.338 27.0586C135.32 27.1078 135.292 27.1522 135.254 27.1903C135.217 27.2276 135.172 27.2554 135.123 27.2744C135.072 27.2919 135.002 27.3115 134.962 27.3115H132.578C132.351 27.3115 132.221 27.1641 132.187 26.9055L132.083 25.8211C131.041 27.0269 129.76 27.629 128.239 27.629C127.125 27.6417 126.03 27.3387 125.084 26.7556C124.143 26.1693 123.381 25.3364 122.881 24.3487C122.36 23.3047 122.089 22.1568 122.089 20.9915C122.089 19.8261 122.36 18.6782 122.881 17.6342C123.382 16.6482 124.146 15.8176 125.09 15.2329C126.035 14.6483 127.13 14.3468 128.244 14.3595C129.733 14.3595 131.024 14.9791 132.113 16.2174L132.191 15.0291C132.224 14.7704 132.356 14.6403 132.582 14.6403H134.971C135.023 14.6372 135.074 14.6459 135.123 14.6633C135.171 14.6808 135.215 14.7078 135.252 14.7427H135.254V14.7443ZM130.307 24.0393C130.804 23.7117 131.207 23.2627 131.478 22.7344C131.765 22.1886 131.913 21.5809 131.907 20.9661C131.925 20.0522 131.592 19.1645 130.971 18.4886C130.687 18.1594 130.33 17.8952 129.932 17.7175C129.534 17.5383 129.1 17.4502 128.662 17.4573C127.711 17.4573 126.927 17.7897 126.312 18.4506C125.697 19.113 125.391 19.9523 125.394 20.9669C125.394 21.9831 125.701 22.8311 126.317 23.511C126.931 24.1909 127.715 24.5304 128.667 24.5304C129.253 24.5359 129.825 24.3646 130.312 24.0393H130.307Z" fill="#092056"></path><path d="M150.513 8.51106C150.549 8.5484 150.575 8.59369 150.593 8.64295C150.611 8.69221 150.62 8.74386 150.616 8.79471V26.9033C150.621 26.9558 150.615 27.009 150.597 27.0583C150.579 27.1075 150.55 27.152 150.513 27.1901C150.475 27.2275 150.43 27.2553 150.381 27.2744C150.331 27.2918 150.26 27.3113 150.221 27.3113H147.837C147.611 27.3113 147.482 27.1631 147.446 26.9041L147.343 25.818C146.301 27.0257 145.021 27.6287 143.5 27.6287C142.386 27.6414 141.29 27.3395 140.343 26.7539C139.401 26.1668 138.638 25.3333 138.138 24.3425C137.618 23.2968 137.348 22.1463 137.348 20.9791C137.348 19.8119 137.619 18.6614 138.138 17.6158C138.639 16.6282 139.403 15.7963 140.347 15.2099C141.293 14.6243 142.387 14.32 143.501 14.3351C144.904 14.3351 146.131 14.8865 147.188 15.9886V8.78994C147.184 8.7375 147.191 8.68586 147.208 8.63659C147.226 8.58733 147.254 8.54284 147.292 8.5047C147.329 8.46736 147.374 8.43955 147.423 8.42048C147.472 8.403 147.525 8.39585 147.578 8.40061H150.225C150.278 8.39902 150.33 8.40776 150.379 8.42683C150.427 8.4459 150.473 8.47451 150.51 8.51106H150.513ZM145.567 24.0326C146.062 23.7029 146.466 23.2531 146.739 22.7248C147.025 22.1781 147.172 21.5687 147.168 20.9529C147.185 20.0376 146.85 19.1477 146.232 18.4707C145.947 18.1394 145.59 17.8764 145.191 17.6969C144.791 17.5173 144.356 17.4291 143.918 17.4362C142.966 17.4362 142.181 17.7692 141.567 18.4318C140.952 19.0961 140.645 19.9359 140.645 20.9529C140.645 21.9699 140.952 22.8209 141.567 23.5018C142.182 24.1828 142.966 24.5228 143.918 24.5228C144.504 24.5284 145.079 24.3568 145.566 24.031L145.567 24.0326Z" fill="#092056"></path><path d="M164.812 21.8831C164.69 22.1138 164.448 22.2312 164.084 22.2312H155.927C156.099 23.0723 156.499 23.7216 157.122 24.179C157.746 24.6365 158.56 24.864 159.564 24.8632C160.038 24.8671 160.512 24.7966 160.966 24.6571C161.432 24.5025 161.869 24.2773 162.265 23.9864C162.345 23.9198 162.445 23.8825 162.551 23.8825C162.604 23.8825 162.658 23.8952 162.708 23.919C162.757 23.9404 162.802 23.9721 162.838 24.0125L163.98 25.1224C164.018 25.1541 164.049 25.1946 164.072 25.2382C164.095 25.2826 164.109 25.3309 164.112 25.3793C164.107 25.4387 164.091 25.4966 164.065 25.5497C164.038 25.6028 164 25.6504 163.956 25.6885C163.339 26.3092 162.602 26.8007 161.79 27.1345C160.977 27.4674 160.107 27.6363 159.228 27.6292C157.927 27.6292 156.765 27.3374 155.747 26.7563C154.749 26.195 153.925 25.3682 153.37 24.3685C152.8 23.3371 152.509 22.1765 152.525 21.0008C152.512 19.8307 152.798 18.6764 153.358 17.6458C153.895 16.6397 154.701 15.8018 155.687 15.2215C156.673 14.6412 157.8 14.3439 158.947 14.3597C160.142 14.3597 161.198 14.6483 162.116 15.2239C163.024 15.7883 163.759 16.5858 164.246 17.534C164.751 18.5154 165.011 19.6047 165 20.7067C164.997 21.2561 164.935 21.6477 164.813 21.8816L164.812 21.8847V21.8831ZM156.927 17.9748C156.365 18.4568 156.015 19.1362 155.876 20.0122H161.954C161.834 19.1346 161.5 18.4568 160.954 17.9748C160.408 17.4928 159.698 17.2343 158.967 17.2518C158.221 17.2343 157.494 17.4912 156.927 17.9748Z" fill="#092056"></path><path d="M41.1432 8.51106C41.1074 8.5484 41.0812 8.59369 41.0629 8.64295C41.0454 8.69221 41.0367 8.74386 41.0399 8.79471V26.9033C41.0351 26.9558 41.0415 27.009 41.0597 27.0583C41.0772 27.1075 41.1058 27.152 41.1432 27.1901C41.1813 27.2275 41.2258 27.2553 41.2751 27.2744C41.3251 27.2918 41.3959 27.3113 41.4357 27.3113H43.8195C44.0452 27.3113 44.1739 27.1631 44.2104 26.9041L44.3137 25.818C45.3555 27.0257 46.6356 27.6287 48.1566 27.6287C49.2706 27.6414 50.3664 27.3395 51.3128 26.7539C52.2553 26.1668 53.0181 25.3333 53.5179 24.3425C54.0384 23.2968 54.3086 22.1463 54.3086 20.9791C54.3086 19.8119 54.0376 18.6614 53.5179 17.6158C53.0173 16.6282 52.2537 15.7963 51.3097 15.2099C50.3633 14.6243 49.2691 14.32 48.155 14.3351C46.7525 14.3351 45.5248 14.8865 44.4687 15.9886V8.78994C44.4727 8.7375 44.4655 8.68586 44.448 8.63659C44.4298 8.58733 44.4019 8.54284 44.3646 8.5047C44.3272 8.46736 44.2819 8.43955 44.2335 8.42048C44.1842 8.403 44.131 8.39585 44.0785 8.40061H41.4308C41.3784 8.39902 41.3267 8.40776 41.2775 8.42683C41.229 8.4459 41.1837 8.47451 41.1463 8.51106H41.1432ZM46.0889 24.0326C45.5939 23.7029 45.1902 23.2531 44.9169 22.7248C44.6316 22.1781 44.4846 21.5687 44.4886 20.9529C44.4711 20.0376 44.8064 19.1477 45.4238 18.4707C45.7091 18.1394 46.0659 17.8764 46.4656 17.6969C46.8653 17.5173 47.3 17.4291 47.7386 17.4362C48.6906 17.4362 49.4757 17.7692 50.0891 18.4318C50.7042 19.0961 51.0109 19.9359 51.0109 20.9529C51.0109 21.9699 50.7042 22.8209 50.0891 23.5018C49.4741 24.1828 48.6906 24.5228 47.7386 24.5228C47.1522 24.5284 46.5768 24.3568 46.0905 24.031L46.0889 24.0326Z" fill="#092056"></path></svg>